<?xml version="1.0" encoding="UTF-8"?>
<!DOCTYPE svg PUBLIC "-//W3C//DTD SVG 1.1//EN" "http://www.w3.org/Graphics/SVG/1.1/DTD/svg11.dtd">
<svg xmlns="http://www.w3.org/2000/svg" version="1.1" width="500px" height="500px" style="shape-rendering:geometricPrecision; text-rendering:geometricPrecision; image-rendering:optimizeQuality; fill-rule:evenodd; clip-rule:evenodd" xmlns:xlink="http://www.w3.org/1999/xlink">
<g><path style="opacity:1" fill="#000000" d="M -0.5,-0.5 C 166.167,-0.5 332.833,-0.5 499.5,-0.5C 499.5,166.167 499.5,332.833 499.5,499.5C 332.833,499.5 166.167,499.5 -0.5,499.5C -0.5,332.833 -0.5,166.167 -0.5,-0.5 Z"/></g>
<g><path style="opacity:1" fill="#f8f8f8" d="M 162.5,130.5 C 178.483,128.978 184.649,135.978 181,151.5C 174.662,160.358 166.996,161.692 158,155.5C 151.099,145.565 152.599,137.232 162.5,130.5 Z"/></g>
<g><path style="opacity:1" fill="#f8f8f8" d="M 418.5,130.5 C 434.483,128.978 440.649,135.978 437,151.5C 430.662,160.358 422.996,161.692 414,155.5C 407.099,145.565 408.599,137.232 418.5,130.5 Z"/></g>
<g><path style="opacity:1" fill="#36b2fa" d="M 271.5,185.5 C 276.844,185.334 282.177,185.501 287.5,186C 291.693,187.526 294.526,190.359 296,194.5C 296.169,201.524 296.669,208.524 297.5,215.5C 298.451,214.674 299.451,214.508 300.5,215C 295.908,218.352 293.574,222.852 293.5,228.5C 295.016,244.338 296.016,260.171 296.5,276C 314.212,281.798 323.212,275.298 323.5,256.5C 323.6,251.902 322.6,247.568 320.5,243.5C 327.044,236.346 328.21,228.346 324,219.5C 322.127,217.291 319.96,215.458 317.5,214C 337.434,216.931 349.267,228.431 353,248.5C 355.402,266.101 350.235,280.935 337.5,293C 316.831,304.216 296.164,304.216 275.5,293C 271.065,289.902 268.232,285.736 267,280.5C 266.333,249.5 266.333,218.5 267,187.5C 268.622,186.901 270.122,186.234 271.5,185.5 Z"/></g>
<g><path style="opacity:1" fill="#37b3fb" d="M 51.5,212.5 C 65.7827,211.226 79.116,214.059 91.5,221C 96.3166,225.151 99.4833,230.318 101,236.5C 101.958,253.9 101.624,271.233 100,288.5C 92.4893,296.123 83.3227,300.289 72.5,301C 58.8285,303.068 45.8285,301.068 33.5,295C 22.2197,285.699 19.3863,274.199 25,260.5C 29.8323,253.162 36.6657,248.996 45.5,248C 54.7905,246.683 64.1238,245.849 73.5,245.5C 73.2786,239.769 70.2786,236.269 64.5,235C 53.5239,233.427 43.0239,234.927 33,239.5C 27.6125,234.4 26.2792,228.4 29,221.5C 31.2336,219.3 33.7336,217.467 36.5,216C 41.5962,214.64 46.5962,213.474 51.5,212.5 Z"/></g>
<g><path style="opacity:1" fill="#37b3fb" d="M 143.5,288.5 C 143.667,270.83 143.5,253.164 143,235.5C 142.487,236.527 141.987,237.527 141.5,238.5C 136.771,245.682 130.105,248.182 121.5,246C 110.474,239.919 107.64,231.085 113,219.5C 120.525,211.662 129.025,210.496 138.5,216C 141.567,219.297 143.733,223.131 145,227.5C 153.66,218.828 164.16,213.995 176.5,213C 192.203,210.548 206.036,214.381 218,224.5C 220.878,228.049 222.878,232.049 224,236.5C 224.5,257.164 224.667,277.831 224.5,298.5C 217.202,299.559 209.869,299.726 202.5,299C 199.272,297.437 197.105,294.937 196,291.5C 195.667,274.833 195.333,258.167 195,241.5C 192.389,237.34 188.556,235.34 183.5,235.5C 179.926,235.691 176.593,236.691 173.5,238.5C 172.5,258.489 172.167,278.489 172.5,298.5C 165.195,299.517 157.861,299.683 150.5,299C 145.81,297.132 143.477,293.632 143.5,288.5 Z"/></g>
<g><path style="opacity:1" fill="#37b2fa" d="M 370.5,212.5 C 382.311,211.149 389.811,216.149 393,227.5C 401.639,218.833 412.139,214 424.5,213C 438.158,211.285 450.825,213.952 462.5,221C 468.197,225.892 471.697,232.059 473,239.5C 473.5,259.164 473.667,278.831 473.5,298.5C 466.195,299.517 458.861,299.683 451.5,299C 447.512,297.552 445.012,294.719 444,290.5C 443.667,273.833 443.333,257.167 443,240.5C 436.43,234.702 429.264,234.036 421.5,238.5C 420.833,258.5 420.167,278.5 419.5,298.5C 411.776,299.963 404.11,299.797 396.5,298C 394.622,296.457 393.122,294.624 392,292.5C 391.667,273.5 391.333,254.5 391,235.5C 388.31,242.856 382.976,246.523 375,246.5C 366.822,246.325 361.488,242.325 359,234.5C 356.826,223.841 360.66,216.508 370.5,212.5 Z"/></g>
<g><path style="opacity:1" fill="#164763" d="M 143.5,288.5 C 142.833,271.833 142.167,255.167 141.5,238.5C 141.987,237.527 142.487,236.527 143,235.5C 143.5,253.164 143.667,270.83 143.5,288.5 Z"/></g>
<g><path style="opacity:1" fill="#010305" d="M 63.5,264.5 C 66.8333,264.5 70.1667,264.5 73.5,264.5C 73.5,269.167 73.5,273.833 73.5,278.5C 67.195,279.487 60.8617,279.653 54.5,279C 49.6584,275.306 49.3251,271.306 53.5,267C 56.9523,266.115 60.2856,265.282 63.5,264.5 Z"/></g>
<g><path style="opacity:1" fill="#f6f6f6" d="M 400.5,352.5 C 402.176,357.016 404.51,361.182 407.5,365C 404.833,365.667 402.167,365.667 399.5,365C 399.446,362.011 398.279,359.178 396,356.5C 395.013,359.697 395.513,362.53 397.5,365C 394.5,365.667 391.5,365.667 388.5,365C 389.796,361.091 390.463,356.925 390.5,352.5C 390.463,348.075 389.796,343.909 388.5,340C 390.81,339.503 393.143,339.337 395.5,339.5C 395.172,344.875 395.505,350.208 396.5,355.5C 397.852,354.476 399.185,353.476 400.5,352.5 Z"/></g>
<g><path style="opacity:1" fill="#f2f2f2" d="M 412.5,339.5 C 416.138,338.737 417.638,340.07 417,343.5C 412.415,345.413 410.915,344.079 412.5,339.5 Z"/></g>
<g><path style="opacity:1" fill="#6c6c6c" d="M 432.5,341.5 C 434.5,340.167 436.5,340.167 438.5,341.5C 437.833,341.5 437.5,341.833 437.5,342.5C 436.167,342.5 434.833,342.5 433.5,342.5C 433.5,341.833 433.167,341.5 432.5,341.5 Z"/></g>
<g><path style="opacity:1" fill="#6f6f6f" d="M 457.5,341.5 C 459.167,340.167 460.833,340.167 462.5,341.5C 462.5,341.833 462.5,342.167 462.5,342.5C 461.5,342.5 460.5,342.5 459.5,342.5C 459.158,341.662 458.492,341.328 457.5,341.5 Z"/></g>
<g><path style="opacity:1" fill="#eaeaea" d="M 432.5,341.5 C 433.167,341.5 433.5,341.833 433.5,342.5C 430.056,345.247 428.722,348.914 429.5,353.5C 428.722,358.086 430.056,361.753 433.5,364.5C 433.5,365.167 433.167,365.5 432.5,365.5C 426.156,364.188 423.156,360.188 423.5,353.5C 423.501,347.175 426.501,343.175 432.5,341.5 Z"/></g>
<g><path style="opacity:1" fill="#060606" d="M 433.5,342.5 C 434.833,342.5 436.167,342.5 437.5,342.5C 441.676,348.229 442.509,354.563 440,361.5C 439.623,362.942 438.79,363.942 437.5,364.5C 436.167,364.5 434.833,364.5 433.5,364.5C 430.056,361.753 428.722,358.086 429.5,353.5C 428.722,348.914 430.056,345.247 433.5,342.5 Z"/></g>
<g><path style="opacity:1" fill="#ebebeb" d="M 437.5,342.5 C 437.5,341.833 437.833,341.5 438.5,341.5C 447.714,345.683 449.88,352.349 445,361.5C 443.117,364.024 440.617,365.358 437.5,365.5C 437.5,365.167 437.5,364.833 437.5,364.5C 438.79,363.942 439.623,362.942 440,361.5C 442.509,354.563 441.676,348.229 437.5,342.5 Z"/></g>
<g><path style="opacity:1" fill="#efefef" d="M 457.5,341.5 C 458.492,341.328 459.158,341.662 459.5,342.5C 457.623,343.659 457.123,345.326 458,347.5C 460.638,350.317 463.638,352.65 467,354.5C 470.067,360.27 468.567,363.936 462.5,365.5C 461.508,365.672 460.842,365.338 460.5,364.5C 463.244,363.928 464.077,362.262 463,359.5C 459.855,356.266 456.522,353.266 453,350.5C 451.422,345.843 452.922,342.843 457.5,341.5 Z"/></g>
<g><path style="opacity:1" fill="#d9d9d9" d="M 462.5,342.5 C 462.5,342.167 462.5,341.833 462.5,341.5C 464.086,342.413 465.586,342.413 467,341.5C 467.667,344.167 467.667,346.833 467,349.5C 466.484,346.453 464.984,344.12 462.5,342.5 Z"/></g>
<g><path style="opacity:1" fill="#7b7b7b" d="M 405.5,349.5 C 403.833,348.167 402.167,348.167 400.5,349.5C 399.624,349.631 398.957,349.298 398.5,348.5C 401.167,347.167 403.833,347.167 406.5,348.5C 406.376,349.107 406.043,349.44 405.5,349.5 Z"/></g>
<g><path style="opacity:1" fill="#dedede" d="M 405.5,349.5 C 403.589,350.075 401.922,351.075 400.5,352.5C 400.5,351.5 400.5,350.5 400.5,349.5C 402.167,348.167 403.833,348.167 405.5,349.5 Z"/></g>
<g><path style="opacity:1" fill="#fafafa" d="M 411.5,349.5 C 412.919,348.549 414.585,348.216 416.5,348.5C 416.179,353.695 416.513,358.695 417.5,363.5C 417.918,364.222 418.584,364.722 419.5,365C 416.5,365.667 413.5,365.667 410.5,365C 411,364.5 411.5,364 412,363.5C 412.815,358.648 412.648,353.981 411.5,349.5 Z"/></g>
<g><path style="opacity:1" fill="#a0a0a0" d="M 417.5,363.5 C 416.513,358.695 416.179,353.695 416.5,348.5C 414.585,348.216 412.919,348.549 411.5,349.5C 410.957,349.44 410.624,349.107 410.5,348.5C 412.743,347.526 415.076,347.192 417.5,347.5C 417.5,352.833 417.5,358.167 417.5,363.5 Z"/></g>
<g><path style="opacity:1" fill="#6f6f6f" d="M 433.5,364.5 C 434.833,364.5 436.167,364.5 437.5,364.5C 437.5,364.833 437.5,365.167 437.5,365.5C 435.833,366.833 434.167,366.833 432.5,365.5C 433.167,365.5 433.5,365.167 433.5,364.5 Z"/></g>
<g><path style="opacity:1" fill="#949494" d="M 460.5,364.5 C 460.842,365.338 461.508,365.672 462.5,365.5C 459.136,366.147 455.803,366.147 452.5,365.5C 451.167,362.5 451.167,359.5 452.5,356.5C 453.333,358.5 454.167,360.5 455,362.5C 456.444,364.155 458.278,364.822 460.5,364.5 Z"/></g>
</svg>
